<svg id="Layer_1" enable-background="new 0 0 510 510" fill="#0A3C93" height="512" viewBox="0 0 510 510" width="512" xmlns="http://www.w3.org/2000/svg"><g><path d="m90 360h30v30h-30z"/><path d="m150 360h30v30h-30z"/><path d="m210 360h30v30h-30z"/><path d="m270 360h30v30h-30z"/><path d="m330 360h30v30h-30z"/><path d="m390 360h30v30h-30z"/><path d="m120 300h30v30h-30z"/><path d="m180 300h30v30h-30z"/><path d="m240 300h30v30h-30z"/><path d="m300 300h30v30h-30z"/><path d="m360 300h30v30h-30z"/><path d="m510 240v-90h-30v30c-14.169 0-60.835 0-75 0v-180h-300v180c-14.169 0-60.835 0-75 0v-30h-30v90h30v-30h30v42.565l-60 180v77.435h510v-77.434l-60-180v-42.566h30v30zm-375-210h240v150h-240zm-45 180h330v30h-330zm334.188 60 50 150h-438.377l50-150zm-394.188 210v-30h450v30z"/><path d="m165 60h120v30h-120z"/><path d="m165 120h180v30h-180z"/></g></svg>