<svg id="Capa_1" enable-background="new 0 0 512 512" height="512" fill="#0A3C93" viewBox="0 0 512 512" width="512" xmlns="http://www.w3.org/2000/svg"><g><path d="m204.499 346.153-76.975-76.974-31.819 31.82c-2.151 2.151-4.057 4.48-5.705 6.957v-41.092c0-24.813-20.187-45-45-45h-45v131.924l96.465 96.465v61.747h30v-42.113c8.072 2.84 16.536 4.264 25 4.264 15.864 0 31.72-5.002 45-14.977v52.826h30l-.086-110.658c.567-19.918-6.712-40.02-21.88-55.189zm-21.214 84.853c-17.546 17.545-46.094 17.545-63.64 0l-89.645-89.645v-89.497h15c8.271 0 15 6.729 15 15v62.071l71.532 71.533 21.214-21.213-35.829-35.829c-2.833-2.833-4.393-6.6-4.393-10.607 0-4.006 1.56-7.773 4.394-10.606l10.606-10.606 55.761 55.76c17.545 17.545 17.545 46.094 0 63.639z"/><path d="m512 221.864h-45c-24.813 0-45 20.187-45 45v41.108c-1.633-2.464-3.534-4.803-5.704-6.973l-31.82-31.819-76.974 76.974c-15.169 15.168-22.449 35.271-21.881 55.189l-.086 110.657h30v-52.809c12.913 9.725 28.549 14.995 45 14.995 8.651 0 17.076-1.462 25-4.256v42.07h30v-61.749l96.465-96.463zm-30 119.497-89.646 89.646c-8.499 8.499-19.8 13.18-31.819 13.18-12.021 0-23.32-4.681-31.82-13.18-17.546-17.546-17.546-46.094 0-63.64l55.761-55.761 10.607 10.607c5.824 5.825 5.848 15.289.07 21.143l-35.899 35.899 21.213 21.213 35.83-35.829c.04-.041.08-.08.12-.121l35.583-35.583v-62.071c0-8.271 6.729-15 15-15h15z"/><path d="m423.118 97.187c-.218-53.625-43.911-97.187-97.587-97.187-26.534 0-51.382 10.606-69.531 29.08-18.149-18.474-42.997-29.08-69.531-29.08-53.676 0-97.369 43.562-97.587 97.187-.436 9.952.027 103.234 158.951 206.395l8.167 5.302 8.167-5.302c158.924-103.162 159.387-196.444 158.951-206.395zm-167.118 175.838c-41.74-28.045-93.752-70.486-120.969-121.647-8.828-16.595-15.551-34.899-16.15-53.79 0-37.268 30.32-67.587 67.588-67.587 23.119 0 44.394 11.631 56.912 31.113l12.619 19.64 12.619-19.641c12.519-19.482 33.794-31.113 56.912-31.113 37.268 0 67.588 30.32 67.588 67.587-1.172 19.106-7.098 36.774-16.15 53.79-27.217 51.162-79.229 93.602-120.969 121.648z"/></g></svg>